<mxfile host="65bd71144e">
    <diagram id="Rq6vKUAzr5i6UWnKAh0b" name="Page-1">
        <mxGraphModel dx="3952" dy="2484" grid="1" gridSize="10" guides="1" tooltips="1" connect="1" arrows="1" fold="1" page="1" pageScale="1" pageWidth="1920" pageHeight="1200" math="0" shadow="0">
            <root>
                <mxCell id="0"/>
                <mxCell id="1" parent="0"/>
                <mxCell id="364" value="" style="rounded=0;whiteSpace=wrap;html=1;" vertex="1" parent="1">
                    <mxGeometry x="683" y="1315" width="1227" height="845" as="geometry"/>
                </mxCell>
                <mxCell id="175" value="" style="rounded=0;whiteSpace=wrap;html=1;" parent="1" vertex="1">
                    <mxGeometry x="840" y="30" width="1010" height="340" as="geometry"/>
                </mxCell>
                <mxCell id="2" value="" style="rounded=0;whiteSpace=wrap;html=1;" parent="1" vertex="1">
                    <mxGeometry x="10" y="30" width="560" height="330" as="geometry"/>
                </mxCell>
                <mxCell id="4" value="Vocalizeへようこそ！" style="rounded=0;whiteSpace=wrap;html=1;" parent="1" vertex="1">
                    <mxGeometry x="100" y="70" width="390" height="60" as="geometry"/>
                </mxCell>
                <mxCell id="5" value="初回起動時ログイン画面" style="text;html=1;align=center;verticalAlign=middle;resizable=0;points=[];autosize=1;strokeColor=none;fillColor=none;fontSize=12;" parent="1" vertex="1">
                    <mxGeometry width="160" height="30" as="geometry"/>
                </mxCell>
                <mxCell id="42" style="edgeStyle=none;html=1;exitX=0.5;exitY=1;exitDx=0;exitDy=0;fontSize=37;fontColor=#000000;startArrow=none;" parent="1" edge="1">
                    <mxGeometry relative="1" as="geometry">
                        <mxPoint x="295" y="560" as="targetPoint"/>
                    </mxGeometry>
                </mxCell>
                <mxCell id="6" value="Discordにログイン" style="rounded=1;whiteSpace=wrap;html=1;" parent="1" vertex="1">
                    <mxGeometry x="235" y="230" width="120" height="60" as="geometry"/>
                </mxCell>
                <mxCell id="8" value="" style="rounded=0;whiteSpace=wrap;html=1;" parent="1" vertex="1">
                    <mxGeometry x="685" y="560" width="560" height="330" as="geometry"/>
                </mxCell>
                <mxCell id="10" value="・音声ライブラリの種類とパス指定？&lt;br&gt;・音楽ファイルのフォルダ指定(任意)&lt;br&gt;・規約の同意とか？&lt;br&gt;・同時接続数選択(複数Botへの同時接続)&lt;br&gt;&lt;b&gt;&lt;br&gt;規約確認画面&lt;/b&gt;" style="rounded=0;whiteSpace=wrap;html=1;" parent="1" vertex="1">
                    <mxGeometry x="10" y="560" width="560" height="330" as="geometry"/>
                </mxCell>
                <mxCell id="11" value="初回ログイン画面(Botの初期設定)" style="text;html=1;align=center;verticalAlign=middle;resizable=0;points=[];autosize=1;strokeColor=none;fillColor=none;fontSize=12;" parent="1" vertex="1">
                    <mxGeometry x="10" y="530" width="210" height="30" as="geometry"/>
                </mxCell>
                <mxCell id="14" value="メインメニュー" style="text;html=1;align=center;verticalAlign=middle;resizable=0;points=[];autosize=1;strokeColor=none;fillColor=none;fontSize=12;" parent="1" vertex="1">
                    <mxGeometry x="675" y="540" width="110" height="30" as="geometry"/>
                </mxCell>
                <mxCell id="92" style="edgeStyle=none;html=1;entryX=0.004;entryY=0.788;entryDx=0;entryDy=0;fontSize=19;fontColor=#FFFFFF;entryPerimeter=0;exitX=1;exitY=0.5;exitDx=0;exitDy=0;" parent="1" source="16" target="75" edge="1">
                    <mxGeometry relative="1" as="geometry"/>
                </mxCell>
                <mxCell id="16" value="接続" style="rounded=1;whiteSpace=wrap;html=1;fontSize=12;" parent="1" vertex="1">
                    <mxGeometry x="880" y="800" width="120" height="50" as="geometry"/>
                </mxCell>
                <mxCell id="88" style="edgeStyle=none;html=1;entryX=0.482;entryY=0;entryDx=0;entryDy=0;fontSize=14;fontColor=#66B2FF;entryPerimeter=0;" parent="1" source="108" target="21" edge="1">
                    <mxGeometry relative="1" as="geometry">
                        <Array as="points">
                            <mxPoint x="1225" y="930"/>
                            <mxPoint x="280" y="930"/>
                        </Array>
                    </mxGeometry>
                </mxCell>
                <mxCell id="18" value="アイ&lt;br&gt;コン" style="ellipse;whiteSpace=wrap;html=1;aspect=fixed;" parent="1" vertex="1">
                    <mxGeometry x="692.5" y="580" width="50" height="50" as="geometry"/>
                </mxCell>
                <mxCell id="20" value="ログイン中:ABCD(ディスコ垢)" style="text;html=1;strokeColor=none;fillColor=none;align=center;verticalAlign=middle;whiteSpace=wrap;rounded=0;fontSize=14;" parent="1" vertex="1">
                    <mxGeometry x="745" y="590" width="210" height="30" as="geometry"/>
                </mxCell>
                <mxCell id="21" value="" style="rounded=0;whiteSpace=wrap;html=1;" parent="1" vertex="1">
                    <mxGeometry x="10" y="960" width="560" height="330" as="geometry"/>
                </mxCell>
                <mxCell id="23" value="" style="rounded=0;whiteSpace=wrap;html=1;fontSize=14;" parent="1" vertex="1">
                    <mxGeometry x="10" y="960" width="120" height="330" as="geometry"/>
                </mxCell>
                <mxCell id="24" value="設定" style="swimlane;fontStyle=0;childLayout=stackLayout;horizontal=1;startSize=40;horizontalStack=0;resizeParent=1;resizeParentMax=0;resizeLast=0;collapsible=1;marginBottom=0;whiteSpace=wrap;html=1;fontSize=14;" parent="1" vertex="1">
                    <mxGeometry x="10" y="960" width="120" height="100" as="geometry">
                        <mxRectangle x="700" y="560" width="120" height="130" as="alternateBounds"/>
                    </mxGeometry>
                </mxCell>
                <mxCell id="69" value="自動接続" style="text;strokeColor=none;fillColor=none;align=left;verticalAlign=middle;spacingLeft=4;spacingRight=4;overflow=hidden;points=[[0,0.5],[1,0.5]];portConstraint=eastwest;rotatable=0;whiteSpace=wrap;html=1;fontSize=14;" vertex="1" parent="24">
                    <mxGeometry y="40" width="120" height="30" as="geometry"/>
                </mxCell>
                <mxCell id="27" value="&lt;font color=&quot;#ff3333&quot;&gt;ログアウト&lt;/font&gt;" style="text;strokeColor=none;fillColor=none;align=left;verticalAlign=middle;spacingLeft=4;spacingRight=4;overflow=hidden;points=[[0,0.5],[1,0.5]];portConstraint=eastwest;rotatable=0;whiteSpace=wrap;html=1;fontSize=14;" parent="24" vertex="1">
                    <mxGeometry y="70" width="120" height="30" as="geometry"/>
                </mxCell>
                <mxCell id="32" value="" style="rounded=0;whiteSpace=wrap;html=1;" parent="1" vertex="1">
                    <mxGeometry x="1323" y="960" width="560" height="330" as="geometry"/>
                </mxCell>
                <mxCell id="37" value="" style="rounded=0;whiteSpace=wrap;html=1;fontSize=14;" parent="1" vertex="1">
                    <mxGeometry x="1323" y="960" width="120" height="330" as="geometry"/>
                </mxCell>
                <mxCell id="33" value="&amp;lt;サーバー名&amp;gt;" style="swimlane;fontStyle=0;childLayout=stackLayout;horizontal=1;startSize=40;horizontalStack=0;resizeParent=1;resizeParentMax=0;resizeLast=0;collapsible=1;marginBottom=0;whiteSpace=wrap;html=1;fontSize=14;" parent="1" vertex="1">
                    <mxGeometry x="1323" y="960" width="120" height="160" as="geometry">
                        <mxRectangle x="700" y="560" width="120" height="130" as="alternateBounds"/>
                    </mxGeometry>
                </mxCell>
                <mxCell id="34" value="音声設定" style="text;strokeColor=none;fillColor=none;align=left;verticalAlign=middle;spacingLeft=4;spacingRight=4;overflow=hidden;points=[[0,0.5],[1,0.5]];portConstraint=eastwest;rotatable=0;whiteSpace=wrap;html=1;fontSize=14;" parent="33" vertex="1">
                    <mxGeometry y="40" width="120" height="30" as="geometry"/>
                </mxCell>
                <mxCell id="35" value="単語設定" style="text;strokeColor=none;fillColor=none;align=left;verticalAlign=middle;spacingLeft=4;spacingRight=4;overflow=hidden;points=[[0,0.5],[1,0.5]];portConstraint=eastwest;rotatable=0;whiteSpace=wrap;html=1;fontSize=14;" parent="33" vertex="1">
                    <mxGeometry y="70" width="120" height="30" as="geometry"/>
                </mxCell>
                <mxCell id="38" value="一般設定&lt;span style=&quot;color: rgba(0, 0, 0, 0); font-family: monospace; font-size: 0px;&quot;&gt;%3CmxGraphModel%3E%3Croot%3E%3CmxCell%20id%3D%220%22%2F%3E%3CmxCell%20id%3D%221%22%20parent%3D%220%22%2F%3E%3CmxCell%20id%3D%222%22%20value%3D%22%22%20style%3D%22rounded%3D0%3BwhiteSpace%3Dwrap%3Bhtml%3D1%3BfontSize%3D14%3B%22%20vertex%3D%221%22%20parent%3D%221%22%3E%3CmxGeometry%20x%3D%22700%22%20y%3D%22560%22%20width%3D%22120%22%20height%3D%22330%22%20as%3D%22geometry%22%2F%3E%3C%2FmxCell%3E%3C%2Froot%3E%3C%2FmxGraphModel%3E&lt;/span&gt;" style="text;strokeColor=none;fillColor=none;align=left;verticalAlign=middle;spacingLeft=4;spacingRight=4;overflow=hidden;points=[[0,0.5],[1,0.5]];portConstraint=eastwest;rotatable=0;whiteSpace=wrap;html=1;fontSize=14;" parent="33" vertex="1">
                    <mxGeometry y="100" width="120" height="30" as="geometry"/>
                </mxCell>
                <mxCell id="36" value="詳細設定" style="text;strokeColor=none;fillColor=none;align=left;verticalAlign=middle;spacingLeft=4;spacingRight=4;overflow=hidden;points=[[0,0.5],[1,0.5]];portConstraint=eastwest;rotatable=0;whiteSpace=wrap;html=1;fontSize=14;" parent="33" vertex="1">
                    <mxGeometry y="130" width="120" height="30" as="geometry"/>
                </mxCell>
                <mxCell id="55" value="&lt;font color=&quot;#ffffff&quot; style=&quot;font-size: 14px;&quot;&gt;サーバーを選択　&lt;/font&gt;" style="rounded=0;whiteSpace=wrap;html=1;fontSize=37;fontColor=#000000;" parent="1" vertex="1">
                    <mxGeometry x="875" y="750" width="130" height="40" as="geometry"/>
                </mxCell>
                <mxCell id="56" value="" style="triangle;whiteSpace=wrap;html=1;fontSize=14;rotation=90;" parent="1" vertex="1">
                    <mxGeometry x="985" y="770" width="10" height="10" as="geometry"/>
                </mxCell>
                <mxCell id="57" value="←適当に置いてみた@yutarou12" style="text;strokeColor=none;fillColor=none;align=left;verticalAlign=middle;spacingLeft=4;spacingRight=4;overflow=hidden;points=[[0,0.5],[1,0.5]];portConstraint=eastwest;rotatable=0;whiteSpace=wrap;html=1;fontSize=14;" parent="1" vertex="1">
                    <mxGeometry x="1453" y="1060" width="240" height="110" as="geometry"/>
                </mxCell>
                <mxCell id="73" value="&lt;font color=&quot;#000000&quot;&gt;or&lt;/font&gt;" style="text;html=1;strokeColor=none;fillColor=none;align=center;verticalAlign=middle;whiteSpace=wrap;rounded=0;fontSize=14;fontColor=#FF3333;" parent="1" vertex="1">
                    <mxGeometry x="910" y="720" width="60" height="30" as="geometry"/>
                </mxCell>
                <mxCell id="74" value="&lt;font color=&quot;#66b2ff&quot;&gt;/connect&lt;/font&gt; を入力して接続" style="text;html=1;strokeColor=none;fillColor=none;align=center;verticalAlign=middle;whiteSpace=wrap;rounded=0;fontSize=14;fontColor=#000000;" parent="1" vertex="1">
                    <mxGeometry x="852.5" y="680" width="175" height="30" as="geometry"/>
                </mxCell>
                <mxCell id="75" value="" style="rounded=0;whiteSpace=wrap;html=1;" parent="1" vertex="1">
                    <mxGeometry x="1320.5" y="570" width="559.5" height="330" as="geometry"/>
                </mxCell>
                <mxCell id="76" value="接続中！！！" style="text;strokeColor=none;fillColor=none;align=center;verticalAlign=middle;spacingLeft=4;spacingRight=4;overflow=hidden;points=[[0,0.5],[1,0.5]];portConstraint=eastwest;rotatable=0;whiteSpace=wrap;html=1;fontSize=25;" parent="1" vertex="1">
                    <mxGeometry x="1479" y="630" width="240" height="80" as="geometry"/>
                </mxCell>
                <mxCell id="78" value="アイ&lt;br&gt;コン" style="ellipse;whiteSpace=wrap;html=1;aspect=fixed;" parent="1" vertex="1">
                    <mxGeometry x="1328" y="580" width="50" height="50" as="geometry"/>
                </mxCell>
                <mxCell id="79" value="ログイン中:ABCD(ディスコ垢)" style="text;html=1;strokeColor=none;fillColor=none;align=center;verticalAlign=middle;whiteSpace=wrap;rounded=0;fontSize=14;" parent="1" vertex="1">
                    <mxGeometry x="1388" y="590" width="210" height="30" as="geometry"/>
                </mxCell>
                <mxCell id="89" value="" style="endArrow=classic;html=1;" parent="1" source="31" edge="1">
                    <mxGeometry width="50" height="50" relative="1" as="geometry">
                        <mxPoint x="1170" y="190" as="sourcePoint"/>
                        <mxPoint x="1320" y="1120" as="targetPoint"/>
                        <Array as="points">
                            <mxPoint x="1170" y="530"/>
                            <mxPoint x="1280" y="530"/>
                            <mxPoint x="1280" y="1120"/>
                        </Array>
                    </mxGeometry>
                </mxCell>
                <mxCell id="91" value="&lt;font style=&quot;font-size: 24px;&quot;&gt;切断&lt;/font&gt;" style="rounded=1;whiteSpace=wrap;html=1;fontSize=8;fontColor=#000000;" parent="1" vertex="1">
                    <mxGeometry x="1538" y="770" width="120" height="60" as="geometry"/>
                </mxCell>
                <mxCell id="93" value="ユーザー設定" style="text;html=1;strokeColor=none;fillColor=none;align=center;verticalAlign=middle;whiteSpace=wrap;rounded=0;" parent="1" vertex="1">
                    <mxGeometry x="10" y="930" width="110" height="30" as="geometry"/>
                </mxCell>
                <mxCell id="94" value="&lt;font style=&quot;font-size: 18px;&quot;&gt;サーバー名: ~~&lt;/font&gt;" style="text;html=1;strokeColor=none;fillColor=none;align=center;verticalAlign=middle;whiteSpace=wrap;rounded=0;fontSize=24;fontColor=#000000;" parent="1" vertex="1">
                    <mxGeometry x="1538" y="710" width="130" height="30" as="geometry"/>
                </mxCell>
                <mxCell id="95" value="サーバー設定(ポップアップ)" style="text;html=1;strokeColor=none;fillColor=none;align=center;verticalAlign=middle;whiteSpace=wrap;rounded=0;" parent="1" vertex="1">
                    <mxGeometry x="1323" y="930" width="170" height="30" as="geometry"/>
                </mxCell>
                <mxCell id="107" value="" style="verticalLabelPosition=bottom;html=1;verticalAlign=top;align=center;strokeColor=none;fillColor=#99CCFF;shape=mxgraph.azure.user;fontSize=19;fontColor=#FFFFFF;" parent="1" vertex="1">
                    <mxGeometry x="1199" y="585" width="30" height="30" as="geometry"/>
                </mxCell>
                <mxCell id="108" value="&lt;span style=&quot;font-family: &amp;quot;gg sans&amp;quot;, &amp;quot;Noto Sans&amp;quot;, &amp;quot;Helvetica Neue&amp;quot;, Helvetica, Arial, sans-serif; text-align: left; background-color: rgba(2, 2, 2, 0.06);&quot;&gt;&lt;b style=&quot;&quot;&gt;&lt;font style=&quot;font-size: 37px;&quot;&gt;⚙&lt;/font&gt;&lt;/b&gt;&lt;/span&gt;" style="text;html=1;strokeColor=none;fillColor=none;align=center;verticalAlign=middle;whiteSpace=wrap;rounded=0;fontSize=12;" parent="1" vertex="1">
                    <mxGeometry x="1220" y="612.5" width="9" as="geometry"/>
                </mxCell>
                <mxCell id="121" value="" style="aspect=fixed;perimeter=ellipsePerimeter;html=1;align=center;shadow=0;dashed=0;fontColor=#4277BB;labelBackgroundColor=#ffffff;fontSize=12;spacingTop=3;image;image=img/lib/ibm/applications/app_server.svg;fillColor=#FFFFFF;" parent="1" vertex="1">
                    <mxGeometry x="1145" y="582.5" width="30" height="30" as="geometry"/>
                </mxCell>
                <mxCell id="31" value="&lt;span style=&quot;font-family: &amp;quot;gg sans&amp;quot;, &amp;quot;Noto Sans&amp;quot;, &amp;quot;Helvetica Neue&amp;quot;, Helvetica, Arial, sans-serif; text-align: left; background-color: rgba(2, 2, 2, 0.06);&quot;&gt;&lt;b style=&quot;&quot;&gt;&lt;font style=&quot;font-size: 37px;&quot;&gt;⚙&lt;/font&gt;&lt;/b&gt;&lt;/span&gt;" style="text;html=1;strokeColor=none;fillColor=none;align=center;verticalAlign=middle;whiteSpace=wrap;rounded=0;fontSize=12;" parent="1" vertex="1">
                    <mxGeometry x="1165" y="610" width="10" height="10" as="geometry"/>
                </mxCell>
                <mxCell id="126" value="&lt;h1&gt;規約更新とアプデがあった時、起動時にそれを表示して再確認させる機能&lt;br&gt;&lt;/h1&gt;" style="text;html=1;strokeColor=none;fillColor=none;spacing=5;spacingTop=-20;whiteSpace=wrap;overflow=hidden;rounded=0;" parent="1" vertex="1">
                    <mxGeometry x="888" y="60" width="820" height="160" as="geometry"/>
                </mxCell>
                <mxCell id="130" value="規約" style="rounded=0;whiteSpace=wrap;html=1;fontSize=18;fontColor=#000000;" parent="1" vertex="1">
                    <mxGeometry x="10" y="1250" width="120" height="40" as="geometry"/>
                </mxCell>
                <mxCell id="131" value="クレジット" style="rounded=0;whiteSpace=wrap;html=1;fontSize=18;fontColor=#000000;" parent="1" vertex="1">
                    <mxGeometry x="10" y="1210" width="120" height="40" as="geometry"/>
                </mxCell>
                <mxCell id="162" value="" style="rounded=0;whiteSpace=wrap;html=1;" parent="1" vertex="1">
                    <mxGeometry x="1370" y="130" width="440" height="220" as="geometry"/>
                </mxCell>
                <mxCell id="163" value="&lt;h1&gt;新しいバージョンがあります！&lt;/h1&gt;&lt;p&gt;更新しなさい&lt;/p&gt;" style="text;html=1;strokeColor=none;fillColor=none;spacing=5;spacingTop=-20;whiteSpace=wrap;overflow=hidden;rounded=0;" parent="1" vertex="1">
                    <mxGeometry x="1410" y="150" width="360" height="90" as="geometry"/>
                </mxCell>
                <mxCell id="165" value="わかった(URL)" style="rounded=0;whiteSpace=wrap;html=1;" parent="1" vertex="1">
                    <mxGeometry x="1410" y="265" width="120" height="45" as="geometry"/>
                </mxCell>
                <mxCell id="168" value="いやだ(とじる)" style="rounded=0;whiteSpace=wrap;html=1;" parent="1" vertex="1">
                    <mxGeometry x="1630" y="265" width="120" height="45" as="geometry"/>
                </mxCell>
                <mxCell id="170" value="" style="rounded=0;whiteSpace=wrap;html=1;" parent="1" vertex="1">
                    <mxGeometry x="888" y="130" width="440" height="220" as="geometry"/>
                </mxCell>
                <mxCell id="171" value="&lt;h1&gt;規約が更新されました&lt;/h1&gt;&lt;div&gt;読め！！！！！&lt;/div&gt;" style="text;html=1;strokeColor=none;fillColor=none;spacing=5;spacingTop=-20;whiteSpace=wrap;overflow=hidden;rounded=0;" parent="1" vertex="1">
                    <mxGeometry x="928" y="150" width="360" height="90" as="geometry"/>
                </mxCell>
                <mxCell id="172" value="わかった(URL)" style="rounded=0;whiteSpace=wrap;html=1;" parent="1" vertex="1">
                    <mxGeometry x="928" y="265" width="120" height="45" as="geometry"/>
                </mxCell>
                <mxCell id="176" value="ぽっぷあっぷたち" style="text;html=1;strokeColor=none;fillColor=none;align=center;verticalAlign=middle;whiteSpace=wrap;rounded=0;" parent="1" vertex="1">
                    <mxGeometry x="830" width="140" height="30" as="geometry"/>
                </mxCell>
                <mxCell id="177" value="" style="rounded=0;whiteSpace=wrap;html=1;" parent="1" vertex="1">
                    <mxGeometry x="1310" y="1370" width="560" height="330" as="geometry"/>
                </mxCell>
                <mxCell id="178" value="" style="rounded=0;whiteSpace=wrap;html=1;fontSize=14;" parent="1" vertex="1">
                    <mxGeometry x="1310" y="1370" width="120" height="330" as="geometry"/>
                </mxCell>
                <mxCell id="179" value="&amp;lt;サーバー名&amp;gt;" style="swimlane;fontStyle=0;childLayout=stackLayout;horizontal=1;startSize=40;horizontalStack=0;resizeParent=1;resizeParentMax=0;resizeLast=0;collapsible=1;marginBottom=0;whiteSpace=wrap;html=1;fontSize=14;" parent="1" vertex="1">
                    <mxGeometry x="1310" y="1370" width="120" height="160" as="geometry">
                        <mxRectangle x="700" y="560" width="120" height="130" as="alternateBounds"/>
                    </mxGeometry>
                </mxCell>
                <mxCell id="180" value="&lt;font color=&quot;#66b2ff&quot;&gt;音声設定&lt;/font&gt;" style="text;strokeColor=none;fillColor=none;align=left;verticalAlign=middle;spacingLeft=4;spacingRight=4;overflow=hidden;points=[[0,0.5],[1,0.5]];portConstraint=eastwest;rotatable=0;whiteSpace=wrap;html=1;fontSize=14;" parent="179" vertex="1">
                    <mxGeometry y="40" width="120" height="30" as="geometry"/>
                </mxCell>
                <mxCell id="181" value="単語設定" style="text;strokeColor=none;fillColor=none;align=left;verticalAlign=middle;spacingLeft=4;spacingRight=4;overflow=hidden;points=[[0,0.5],[1,0.5]];portConstraint=eastwest;rotatable=0;whiteSpace=wrap;html=1;fontSize=14;" parent="179" vertex="1">
                    <mxGeometry y="70" width="120" height="30" as="geometry"/>
                </mxCell>
                <mxCell id="182" value="一般設定&lt;span style=&quot;color: rgba(0, 0, 0, 0); font-family: monospace; font-size: 0px;&quot;&gt;%3CmxGraphModel%3E%3Croot%3E%3CmxCell%20id%3D%220%22%2F%3E%3CmxCell%20id%3D%221%22%20parent%3D%220%22%2F%3E%3CmxCell%20id%3D%222%22%20value%3D%22%22%20style%3D%22rounded%3D0%3BwhiteSpace%3Dwrap%3Bhtml%3D1%3BfontSize%3D14%3B%22%20vertex%3D%221%22%20parent%3D%221%22%3E%3CmxGeometry%20x%3D%22700%22%20y%3D%22560%22%20width%3D%22120%22%20height%3D%22330%22%20as%3D%22geometry%22%2F%3E%3C%2FmxCell%3E%3C%2Froot%3E%3C%2FmxGraphModel%3E&lt;/span&gt;" style="text;strokeColor=none;fillColor=none;align=left;verticalAlign=middle;spacingLeft=4;spacingRight=4;overflow=hidden;points=[[0,0.5],[1,0.5]];portConstraint=eastwest;rotatable=0;whiteSpace=wrap;html=1;fontSize=14;" parent="179" vertex="1">
                    <mxGeometry y="100" width="120" height="30" as="geometry"/>
                </mxCell>
                <mxCell id="183" value="詳細設定" style="text;strokeColor=none;fillColor=none;align=left;verticalAlign=middle;spacingLeft=4;spacingRight=4;overflow=hidden;points=[[0,0.5],[1,0.5]];portConstraint=eastwest;rotatable=0;whiteSpace=wrap;html=1;fontSize=14;" parent="179" vertex="1">
                    <mxGeometry y="130" width="120" height="30" as="geometry"/>
                </mxCell>
                <mxCell id="187" value="" style="rounded=0;whiteSpace=wrap;html=1;" parent="1" vertex="1">
                    <mxGeometry x="1323" y="1770" width="560" height="330" as="geometry"/>
                </mxCell>
                <mxCell id="188" value="" style="rounded=0;whiteSpace=wrap;html=1;fontSize=14;" parent="1" vertex="1">
                    <mxGeometry x="1323" y="1770" width="120" height="330" as="geometry"/>
                </mxCell>
                <mxCell id="189" value="&amp;lt;サーバー名&amp;gt;" style="swimlane;fontStyle=0;childLayout=stackLayout;horizontal=1;startSize=40;horizontalStack=0;resizeParent=1;resizeParentMax=0;resizeLast=0;collapsible=1;marginBottom=0;whiteSpace=wrap;html=1;fontSize=14;" parent="1" vertex="1">
                    <mxGeometry x="1323" y="1770" width="120" height="160" as="geometry">
                        <mxRectangle x="700" y="560" width="120" height="130" as="alternateBounds"/>
                    </mxGeometry>
                </mxCell>
                <mxCell id="190" value="音声設定" style="text;strokeColor=none;fillColor=none;align=left;verticalAlign=middle;spacingLeft=4;spacingRight=4;overflow=hidden;points=[[0,0.5],[1,0.5]];portConstraint=eastwest;rotatable=0;whiteSpace=wrap;html=1;fontSize=14;" parent="189" vertex="1">
                    <mxGeometry y="40" width="120" height="30" as="geometry"/>
                </mxCell>
                <mxCell id="191" value="&lt;font color=&quot;#66b2ff&quot;&gt;単語設定&lt;/font&gt;" style="text;strokeColor=none;fillColor=none;align=left;verticalAlign=middle;spacingLeft=4;spacingRight=4;overflow=hidden;points=[[0,0.5],[1,0.5]];portConstraint=eastwest;rotatable=0;whiteSpace=wrap;html=1;fontSize=14;fontColor=#6666FF;" parent="189" vertex="1">
                    <mxGeometry y="70" width="120" height="30" as="geometry"/>
                </mxCell>
                <mxCell id="192" value="一般設定&lt;span style=&quot;color: rgba(0, 0, 0, 0); font-family: monospace; font-size: 0px;&quot;&gt;%3CmxGraphModel%3E%3Croot%3E%3CmxCell%20id%3D%220%22%2F%3E%3CmxCell%20id%3D%221%22%20parent%3D%220%22%2F%3E%3CmxCell%20id%3D%222%22%20value%3D%22%22%20style%3D%22rounded%3D0%3BwhiteSpace%3Dwrap%3Bhtml%3D1%3BfontSize%3D14%3B%22%20vertex%3D%221%22%20parent%3D%221%22%3E%3CmxGeometry%20x%3D%22700%22%20y%3D%22560%22%20width%3D%22120%22%20height%3D%22330%22%20as%3D%22geometry%22%2F%3E%3C%2FmxCell%3E%3C%2Froot%3E%3C%2FmxGraphModel%3E&lt;/span&gt;" style="text;strokeColor=none;fillColor=none;align=left;verticalAlign=middle;spacingLeft=4;spacingRight=4;overflow=hidden;points=[[0,0.5],[1,0.5]];portConstraint=eastwest;rotatable=0;whiteSpace=wrap;html=1;fontSize=14;" parent="189" vertex="1">
                    <mxGeometry y="100" width="120" height="30" as="geometry"/>
                </mxCell>
                <mxCell id="193" value="詳細設定" style="text;strokeColor=none;fillColor=none;align=left;verticalAlign=middle;spacingLeft=4;spacingRight=4;overflow=hidden;points=[[0,0.5],[1,0.5]];portConstraint=eastwest;rotatable=0;whiteSpace=wrap;html=1;fontSize=14;" parent="189" vertex="1">
                    <mxGeometry y="130" width="120" height="30" as="geometry"/>
                </mxCell>
                <mxCell id="196" value="" style="rounded=1;whiteSpace=wrap;html=1;strokeColor=default;fontSize=9;fontColor=#6666FF;fillColor=#18141d;" parent="1" vertex="1">
                    <mxGeometry x="1453" y="1800" width="140" height="290" as="geometry"/>
                </mxCell>
                <mxCell id="197" value="一覧" style="swimlane;fontStyle=0;childLayout=stackLayout;horizontal=1;startSize=40;horizontalStack=0;resizeParent=1;resizeParentMax=0;resizeLast=0;collapsible=1;marginBottom=0;whiteSpace=wrap;html=1;fontSize=14;strokeColor=none;" parent="1" vertex="1">
                    <mxGeometry x="1463" y="1810" width="120" height="190" as="geometry">
                        <mxRectangle x="700" y="560" width="120" height="130" as="alternateBounds"/>
                    </mxGeometry>
                </mxCell>
                <mxCell id="198" value="a" style="text;strokeColor=none;fillColor=none;align=left;verticalAlign=middle;spacingLeft=4;spacingRight=4;overflow=hidden;points=[[0,0.5],[1,0.5]];portConstraint=eastwest;rotatable=0;whiteSpace=wrap;html=1;fontSize=14;" parent="197" vertex="1">
                    <mxGeometry y="40" width="120" height="30" as="geometry"/>
                </mxCell>
                <mxCell id="199" value="s" style="text;strokeColor=none;fillColor=none;align=left;verticalAlign=middle;spacingLeft=4;spacingRight=4;overflow=hidden;points=[[0,0.5],[1,0.5]];portConstraint=eastwest;rotatable=0;whiteSpace=wrap;html=1;fontSize=14;fontColor=#f5f5fa;" parent="197" vertex="1">
                    <mxGeometry y="70" width="120" height="30" as="geometry"/>
                </mxCell>
                <mxCell id="200" value="f" style="text;strokeColor=none;fillColor=none;align=left;verticalAlign=middle;spacingLeft=4;spacingRight=4;overflow=hidden;points=[[0,0.5],[1,0.5]];portConstraint=eastwest;rotatable=0;whiteSpace=wrap;html=1;fontSize=14;" parent="197" vertex="1">
                    <mxGeometry y="100" width="120" height="30" as="geometry"/>
                </mxCell>
                <mxCell id="201" value="h" style="text;strokeColor=none;fillColor=none;align=left;verticalAlign=middle;spacingLeft=4;spacingRight=4;overflow=hidden;points=[[0,0.5],[1,0.5]];portConstraint=eastwest;rotatable=0;whiteSpace=wrap;html=1;fontSize=14;" parent="197" vertex="1">
                    <mxGeometry y="130" width="120" height="30" as="geometry"/>
                </mxCell>
                <mxCell id="202" value="b" style="text;strokeColor=none;fillColor=none;align=left;verticalAlign=middle;spacingLeft=4;spacingRight=4;overflow=hidden;points=[[0,0.5],[1,0.5]];portConstraint=eastwest;rotatable=0;whiteSpace=wrap;html=1;fontSize=14;" parent="197" vertex="1">
                    <mxGeometry y="160" width="120" height="30" as="geometry"/>
                </mxCell>
                <mxCell id="203" value="" style="rounded=1;whiteSpace=wrap;html=1;strokeColor=default;fontSize=9;fontColor=#f5f5fa;fillColor=#18141D;" parent="1" vertex="1">
                    <mxGeometry x="1643" y="1845" width="210" height="40" as="geometry"/>
                </mxCell>
                <mxCell id="204" value="" style="rounded=1;whiteSpace=wrap;html=1;strokeColor=default;fontSize=9;fontColor=#f5f5fa;fillColor=#18141D;" parent="1" vertex="1">
                    <mxGeometry x="1643" y="1920" width="210" height="40" as="geometry"/>
                </mxCell>
                <mxCell id="205" value="単語" style="text;strokeColor=none;fillColor=none;align=left;verticalAlign=middle;spacingLeft=4;spacingRight=4;overflow=hidden;points=[[0,0.5],[1,0.5]];portConstraint=eastwest;rotatable=0;whiteSpace=wrap;html=1;fontSize=14;" parent="1" vertex="1">
                    <mxGeometry x="1643" y="1815" width="120" height="30" as="geometry"/>
                </mxCell>
                <mxCell id="206" value="読み方" style="text;strokeColor=none;fillColor=none;align=left;verticalAlign=middle;spacingLeft=4;spacingRight=4;overflow=hidden;points=[[0,0.5],[1,0.5]];portConstraint=eastwest;rotatable=0;whiteSpace=wrap;html=1;fontSize=14;" parent="1" vertex="1">
                    <mxGeometry x="1643" y="1890" width="120" height="30" as="geometry"/>
                </mxCell>
                <mxCell id="207" value="登録" style="rounded=1;whiteSpace=wrap;html=1;strokeColor=default;fontSize=16;fontColor=#f5f5fa;fillColor=#18141D;" parent="1" vertex="1">
                    <mxGeometry x="1763" y="1980" width="90" height="30" as="geometry"/>
                </mxCell>
                <mxCell id="209" value="削除" style="rounded=1;whiteSpace=wrap;html=1;strokeColor=default;fontSize=16;fontColor=#f5f5fa;fillColor=#18141D;" parent="1" vertex="1">
                    <mxGeometry x="1763" y="2030" width="90" height="30" as="geometry"/>
                </mxCell>
                <mxCell id="213" value="" style="rounded=0;whiteSpace=wrap;html=1;" parent="1" vertex="1">
                    <mxGeometry x="700" y="1770" width="560" height="330" as="geometry"/>
                </mxCell>
                <mxCell id="214" value="" style="rounded=0;whiteSpace=wrap;html=1;fontSize=14;" parent="1" vertex="1">
                    <mxGeometry x="700" y="1770" width="120" height="330" as="geometry"/>
                </mxCell>
                <mxCell id="215" value="&amp;lt;サーバー名&amp;gt;" style="swimlane;fontStyle=0;childLayout=stackLayout;horizontal=1;startSize=40;horizontalStack=0;resizeParent=1;resizeParentMax=0;resizeLast=0;collapsible=1;marginBottom=0;whiteSpace=wrap;html=1;fontSize=14;" parent="1" vertex="1">
                    <mxGeometry x="700" y="1770" width="120" height="160" as="geometry">
                        <mxRectangle x="700" y="560" width="120" height="130" as="alternateBounds"/>
                    </mxGeometry>
                </mxCell>
                <mxCell id="216" value="音声設定" style="text;strokeColor=none;fillColor=none;align=left;verticalAlign=middle;spacingLeft=4;spacingRight=4;overflow=hidden;points=[[0,0.5],[1,0.5]];portConstraint=eastwest;rotatable=0;whiteSpace=wrap;html=1;fontSize=14;" parent="215" vertex="1">
                    <mxGeometry y="40" width="120" height="30" as="geometry"/>
                </mxCell>
                <mxCell id="217" value="単語設定" style="text;strokeColor=none;fillColor=none;align=left;verticalAlign=middle;spacingLeft=4;spacingRight=4;overflow=hidden;points=[[0,0.5],[1,0.5]];portConstraint=eastwest;rotatable=0;whiteSpace=wrap;html=1;fontSize=14;fontColor=#FFFFFF;" parent="215" vertex="1">
                    <mxGeometry y="70" width="120" height="30" as="geometry"/>
                </mxCell>
                <mxCell id="218" value="&lt;font color=&quot;#66b2ff&quot;&gt;一般設定&lt;span style=&quot;font-family: monospace; font-size: 0px;&quot;&gt;%3CmxGraphModel%3E%3Croot%3E%3CmxCell%20id%3D%220%22%2F%3E%3CmxCell%20id%3D%221%22%20parent%3D%220%22%2F%3E%3CmxCell%20id%3D%222%22%20value%3D%22%22%20style%3D%22rounded%3D0%3BwhiteSpace%3Dwrap%3Bhtml%3D1%3BfontSize%3D14%3B%22%20vertex%3D%221%22%20parent%3D%221%22%3E%3CmxGeometry%20x%3D%22700%22%20y%3D%22560%22%20width%3D%22120%22%20height%3D%22330%22%20as%3D%22geometry%22%2F%3E%3C%2FmxCell%3E%3C%2Froot%3E%3C%2FmxGraphModel%3E&lt;/span&gt;&lt;/font&gt;" style="text;strokeColor=none;fillColor=none;align=left;verticalAlign=middle;spacingLeft=4;spacingRight=4;overflow=hidden;points=[[0,0.5],[1,0.5]];portConstraint=eastwest;rotatable=0;whiteSpace=wrap;html=1;fontSize=14;fontColor=#6666FF;" parent="215" vertex="1">
                    <mxGeometry y="100" width="120" height="30" as="geometry"/>
                </mxCell>
                <mxCell id="219" value="詳細設定" style="text;strokeColor=none;fillColor=none;align=left;verticalAlign=middle;spacingLeft=4;spacingRight=4;overflow=hidden;points=[[0,0.5],[1,0.5]];portConstraint=eastwest;rotatable=0;whiteSpace=wrap;html=1;fontSize=14;" parent="215" vertex="1">
                    <mxGeometry y="130" width="120" height="30" as="geometry"/>
                </mxCell>
                <mxCell id="234" value="発言者の名前を読む" style="rounded=1;whiteSpace=wrap;html=1;strokeColor=default;fontSize=16;fontColor=#f5f5fa;fillColor=#18141D;align=left;" parent="1" vertex="1">
                    <mxGeometry x="840" y="1790" width="280" height="40" as="geometry"/>
                </mxCell>
                <mxCell id="235" value="オン" style="rounded=1;whiteSpace=wrap;html=1;strokeColor=default;fontSize=18;fontColor=#f5f5fa;fillColor=#18141D;" parent="1" vertex="1">
                    <mxGeometry x="1140" y="1790" width="109" height="40" as="geometry"/>
                </mxCell>
                <mxCell id="236" value="VC参加者を読み上げる" style="rounded=1;whiteSpace=wrap;html=1;strokeColor=default;fontSize=16;fontColor=#f5f5fa;fillColor=#18141D;align=left;" parent="1" vertex="1">
                    <mxGeometry x="840" y="1860" width="280" height="40" as="geometry"/>
                </mxCell>
                <mxCell id="237" value="&lt;span style=&quot;font-size: 18px;&quot;&gt;オン&lt;/span&gt;" style="rounded=1;whiteSpace=wrap;html=1;strokeColor=default;fontSize=9;fontColor=#f5f5fa;fillColor=#18141D;" parent="1" vertex="1">
                    <mxGeometry x="1140" y="1860" width="109" height="40" as="geometry"/>
                </mxCell>
                <mxCell id="240" value="&lt;span style=&quot;font-size: 16px;&quot;&gt;VC離脱者を読み上げる&lt;/span&gt;" style="rounded=1;whiteSpace=wrap;html=1;strokeColor=default;fontSize=9;fontColor=#f5f5fa;fillColor=#18141D;align=left;" parent="1" vertex="1">
                    <mxGeometry x="840" y="1920" width="280" height="40" as="geometry"/>
                </mxCell>
                <mxCell id="241" value="&lt;span style=&quot;font-size: 18px;&quot;&gt;オン&lt;/span&gt;" style="rounded=1;whiteSpace=wrap;html=1;strokeColor=default;fontSize=9;fontColor=#f5f5fa;fillColor=#18141D;" parent="1" vertex="1">
                    <mxGeometry x="1140" y="1920" width="109" height="40" as="geometry"/>
                </mxCell>
                <mxCell id="242" value="&lt;span style=&quot;font-size: 16px;&quot;&gt;添付ファイルを読み上げで伝える&lt;/span&gt;" style="rounded=1;whiteSpace=wrap;html=1;strokeColor=default;fontSize=9;fontColor=#f5f5fa;fillColor=#18141D;align=left;" parent="1" vertex="1">
                    <mxGeometry x="840" y="1980" width="280" height="40" as="geometry"/>
                </mxCell>
                <mxCell id="243" value="&lt;span style=&quot;font-size: 18px;&quot;&gt;オフ&lt;/span&gt;" style="rounded=1;whiteSpace=wrap;html=1;strokeColor=default;fontSize=9;fontColor=#f5f5fa;fillColor=#18141D;" parent="1" vertex="1">
                    <mxGeometry x="1140" y="1980" width="109" height="40" as="geometry"/>
                </mxCell>
                <mxCell id="246" value="" style="triangle;whiteSpace=wrap;html=1;strokeColor=default;fontSize=16;fontColor=#6666FF;fillColor=#18141d;rotation=90;" parent="1" vertex="1">
                    <mxGeometry x="1229" y="1802.5" width="10" height="15" as="geometry"/>
                </mxCell>
                <mxCell id="247" value="" style="triangle;whiteSpace=wrap;html=1;strokeColor=default;fontSize=16;fontColor=#6666FF;fillColor=#18141d;rotation=90;" parent="1" vertex="1">
                    <mxGeometry x="1229" y="1872.5" width="10" height="15" as="geometry"/>
                </mxCell>
                <mxCell id="248" value="" style="triangle;whiteSpace=wrap;html=1;strokeColor=default;fontSize=16;fontColor=#6666FF;fillColor=#18141d;rotation=90;" parent="1" vertex="1">
                    <mxGeometry x="1230" y="1935" width="10" height="15" as="geometry"/>
                </mxCell>
                <mxCell id="249" value="" style="triangle;whiteSpace=wrap;html=1;strokeColor=default;fontSize=16;fontColor=#6666FF;fillColor=#18141d;rotation=90;" parent="1" vertex="1">
                    <mxGeometry x="1230" y="1992.5" width="10" height="15" as="geometry"/>
                </mxCell>
                <mxCell id="251" value="&lt;span style=&quot;font-size: 16px;&quot;&gt;音源を選択&lt;/span&gt;" style="rounded=1;whiteSpace=wrap;html=1;align=left;" parent="1" vertex="1">
                    <mxGeometry x="1457.5" y="1527.5" width="252.5" height="40" as="geometry"/>
                </mxCell>
                <mxCell id="252" value="" style="triangle;whiteSpace=wrap;html=1;strokeColor=default;fontSize=16;fontColor=#6666FF;fillColor=#18141d;rotation=90;" parent="1" vertex="1">
                    <mxGeometry x="1685" y="1542.5" width="10" height="15" as="geometry"/>
                </mxCell>
                <mxCell id="254" value="&lt;font style=&quot;font-size: 16px;&quot;&gt;音声ライブラリを選択&lt;/font&gt;" style="rounded=1;whiteSpace=wrap;html=1;align=left;" parent="1" vertex="1">
                    <mxGeometry x="1457.5" y="1420" width="252.5" height="40" as="geometry"/>
                </mxCell>
                <mxCell id="255" value="" style="triangle;whiteSpace=wrap;html=1;strokeColor=default;fontSize=16;fontColor=#6666FF;fillColor=#18141d;rotation=90;" parent="1" vertex="1">
                    <mxGeometry x="1680" y="1432.5" width="10" height="15" as="geometry"/>
                </mxCell>
                <mxCell id="258" value="&lt;font style=&quot;font-size: 20px;&quot;&gt;使用音声ライブラリ&lt;/font&gt;" style="text;html=1;strokeColor=none;fillColor=none;align=center;verticalAlign=middle;whiteSpace=wrap;rounded=0;fontSize=16;" parent="1" vertex="1">
                    <mxGeometry x="1457.5" y="1390" width="182.5" height="30" as="geometry"/>
                </mxCell>
                <mxCell id="259" value="適用" style="rounded=1;whiteSpace=wrap;html=1;strokeColor=default;fontSize=16;fontColor=#f5f5fa;fillColor=#18141D;" parent="1" vertex="1">
                    <mxGeometry x="1759" y="1650" width="90" height="30" as="geometry"/>
                </mxCell>
                <mxCell id="260" value="&lt;font style=&quot;font-size: 14px;&quot;&gt;デフォルト音声&lt;/font&gt;" style="text;html=1;strokeColor=none;fillColor=none;align=left;verticalAlign=middle;whiteSpace=wrap;rounded=0;fontSize=14;" parent="1" vertex="1">
                    <mxGeometry x="1457.5" y="1460" width="152.5" height="30" as="geometry"/>
                </mxCell>
                <mxCell id="261" value="適用" style="rounded=1;whiteSpace=wrap;html=1;strokeColor=default;fontSize=16;fontColor=#f5f5fa;fillColor=#18141D;" parent="1" vertex="1">
                    <mxGeometry x="1149" y="2050" width="90" height="30" as="geometry"/>
                </mxCell>
                <mxCell id="262" value="音源" style="text;html=1;strokeColor=none;fillColor=none;align=left;verticalAlign=middle;whiteSpace=wrap;rounded=0;fontSize=16;" parent="1" vertex="1">
                    <mxGeometry x="1455" y="1490" width="150" height="30" as="geometry"/>
                </mxCell>
                <mxCell id="263" value="スピード" style="text;html=1;strokeColor=none;fillColor=none;align=left;verticalAlign=middle;whiteSpace=wrap;rounded=0;fontSize=16;" parent="1" vertex="1">
                    <mxGeometry x="1455" y="1570" width="150" height="30" as="geometry"/>
                </mxCell>
                <mxCell id="265" value="" style="shape=crossbar;whiteSpace=wrap;html=1;rounded=1;fontSize=20;" parent="1" vertex="1">
                    <mxGeometry x="1473" y="1600" width="250" height="20" as="geometry"/>
                </mxCell>
                <mxCell id="266" value="" style="rounded=0;whiteSpace=wrap;html=1;fontSize=20;" parent="1" vertex="1">
                    <mxGeometry x="1503" y="1600" width="10" height="20" as="geometry"/>
                </mxCell>
                <mxCell id="360" value="" style="edgeStyle=none;html=1;exitX=0.5;exitY=1;exitDx=0;exitDy=0;fontSize=37;fontColor=#000000;endArrow=none;" edge="1" parent="1" source="6" target="359">
                    <mxGeometry relative="1" as="geometry">
                        <mxPoint x="295" y="559.9999999999998" as="targetPoint"/>
                        <mxPoint x="295" y="290" as="sourcePoint"/>
                    </mxGeometry>
                </mxCell>
                <mxCell id="361" style="edgeStyle=none;html=1;entryX=0.509;entryY=0;entryDx=0;entryDy=0;entryPerimeter=0;fontSize=13;fontColor=#FFFFFF;" edge="1" parent="1" source="359" target="10">
                    <mxGeometry relative="1" as="geometry"/>
                </mxCell>
                <mxCell id="362" style="edgeStyle=none;html=1;entryX=0.5;entryY=0;entryDx=0;entryDy=0;fontSize=13;fontColor=#FFFFFF;" edge="1" parent="1" source="359" target="8">
                    <mxGeometry relative="1" as="geometry">
                        <Array as="points">
                            <mxPoint x="965" y="450"/>
                        </Array>
                    </mxGeometry>
                </mxCell>
                <mxCell id="359" value="IF 初回" style="rhombus;whiteSpace=wrap;html=1;strokeColor=default;fontSize=13;fontColor=#FFFFFF;fillColor=default;" vertex="1" parent="1">
                    <mxGeometry x="240" y="410" width="110" height="80" as="geometry"/>
                </mxCell>
                <mxCell id="366" value="" style="rounded=0;whiteSpace=wrap;html=1;" vertex="1" parent="1">
                    <mxGeometry x="10" y="1385" width="560" height="330" as="geometry"/>
                </mxCell>
                <mxCell id="367" value="" style="rounded=0;whiteSpace=wrap;html=1;fontSize=14;" vertex="1" parent="1">
                    <mxGeometry x="10" y="1385" width="120" height="330" as="geometry"/>
                </mxCell>
                <mxCell id="368" value="設定" style="swimlane;fontStyle=0;childLayout=stackLayout;horizontal=1;startSize=40;horizontalStack=0;resizeParent=1;resizeParentMax=0;resizeLast=0;collapsible=1;marginBottom=0;whiteSpace=wrap;html=1;fontSize=14;" vertex="1" parent="1">
                    <mxGeometry x="10" y="1385" width="120" height="100" as="geometry">
                        <mxRectangle x="700" y="560" width="120" height="130" as="alternateBounds"/>
                    </mxGeometry>
                </mxCell>
                <mxCell id="369" value="&lt;font color=&quot;#66b2ff&quot;&gt;自動接続&lt;/font&gt;" style="text;strokeColor=none;fillColor=none;align=left;verticalAlign=middle;spacingLeft=4;spacingRight=4;overflow=hidden;points=[[0,0.5],[1,0.5]];portConstraint=eastwest;rotatable=0;whiteSpace=wrap;html=1;fontSize=14;" vertex="1" parent="368">
                    <mxGeometry y="40" width="120" height="30" as="geometry"/>
                </mxCell>
                <mxCell id="370" value="&lt;font color=&quot;#ff3333&quot;&gt;ログアウト&lt;/font&gt;" style="text;strokeColor=none;fillColor=none;align=left;verticalAlign=middle;spacingLeft=4;spacingRight=4;overflow=hidden;points=[[0,0.5],[1,0.5]];portConstraint=eastwest;rotatable=0;whiteSpace=wrap;html=1;fontSize=14;" vertex="1" parent="368">
                    <mxGeometry y="70" width="120" height="30" as="geometry"/>
                </mxCell>
                <mxCell id="371" value="ユーザー設定" style="text;html=1;strokeColor=none;fillColor=none;align=center;verticalAlign=middle;whiteSpace=wrap;rounded=0;" vertex="1" parent="1">
                    <mxGeometry x="10" y="1355" width="110" height="30" as="geometry"/>
                </mxCell>
                <mxCell id="372" value="規約" style="rounded=0;whiteSpace=wrap;html=1;fontSize=18;fontColor=#000000;" vertex="1" parent="1">
                    <mxGeometry x="10" y="1675" width="120" height="40" as="geometry"/>
                </mxCell>
                <mxCell id="373" value="クレジット" style="rounded=0;whiteSpace=wrap;html=1;fontSize=18;fontColor=#000000;" vertex="1" parent="1">
                    <mxGeometry x="10" y="1635" width="120" height="40" as="geometry"/>
                </mxCell>
                <mxCell id="365" style="edgeStyle=none;html=1;entryX=0.57;entryY=0.006;entryDx=0;entryDy=0;entryPerimeter=0;fontSize=13;fontColor=#FFFFFF;" edge="1" parent="1" source="36" target="364">
                    <mxGeometry relative="1" as="geometry">
                        <mxPoint x="1370" y="1310" as="sourcePoint"/>
                    </mxGeometry>
                </mxCell>
                <mxCell id="374" value="トーン" style="text;html=1;strokeColor=none;fillColor=none;align=left;verticalAlign=middle;whiteSpace=wrap;rounded=0;fontSize=16;" vertex="1" parent="1">
                    <mxGeometry x="1453" y="1635" width="150" height="30" as="geometry"/>
                </mxCell>
                <mxCell id="375" value="" style="shape=crossbar;whiteSpace=wrap;html=1;rounded=1;fontSize=20;" vertex="1" parent="1">
                    <mxGeometry x="1471" y="1665" width="250" height="20" as="geometry"/>
                </mxCell>
                <mxCell id="376" value="" style="rounded=0;whiteSpace=wrap;html=1;fontSize=20;" vertex="1" parent="1">
                    <mxGeometry x="1501" y="1665" width="10" height="20" as="geometry"/>
                </mxCell>
                <mxCell id="377" value="" style="shape=internalStorage;whiteSpace=wrap;html=1;backgroundOutline=1;fontColor=#66B2FF;dx=330;dy=30;" vertex="1" parent="1">
                    <mxGeometry x="170" y="1480" width="370" height="185" as="geometry"/>
                </mxCell>
                <mxCell id="378" value="自動接続を許可する" style="text;html=1;strokeColor=none;fillColor=none;align=center;verticalAlign=middle;whiteSpace=wrap;rounded=0;fontColor=default;fontSize=18;" vertex="1" parent="1">
                    <mxGeometry x="170" y="1402.5" width="165" height="30" as="geometry"/>
                </mxCell>
                <mxCell id="379" value="heck" style="edgeStyle=none;orthogonalLoop=1;jettySize=auto;html=1;fontSize=14;fontColor=#FFFFFF;" edge="1" parent="1">
                    <mxGeometry width="80" relative="1" as="geometry">
                        <mxPoint x="650" y="1150" as="sourcePoint"/>
                        <mxPoint x="730" y="1150" as="targetPoint"/>
                        <Array as="points"/>
                    </mxGeometry>
                </mxCell>
                <mxCell id="380" value="サーバーごとの許可設定" style="text;html=1;strokeColor=none;fillColor=none;align=center;verticalAlign=middle;whiteSpace=wrap;rounded=0;fontColor=default;fontSize=18;" vertex="1" parent="1">
                    <mxGeometry x="170" y="1447.5" width="200" height="30" as="geometry"/>
                </mxCell>
                <mxCell id="381" value="YES" style="text;html=1;strokeColor=none;fillColor=none;align=center;verticalAlign=middle;whiteSpace=wrap;rounded=0;fontSize=14;" vertex="1" parent="1">
                    <mxGeometry x="245" y="490" width="50" height="30" as="geometry"/>
                </mxCell>
                <mxCell id="382" value="" style="dashed=0;labelPosition=right;align=left;shape=mxgraph.gmdl.checkbox;strokeColor=#B0B0B0;fillColor=none;strokeWidth=2;aspect=fixed;sketch=0;fontSize=18;fontColor=default;" vertex="1" parent="1">
                    <mxGeometry x="510" y="1490" width="16" height="16" as="geometry"/>
                </mxCell>
                <mxCell id="383" value="NO" style="text;html=1;strokeColor=none;fillColor=none;align=center;verticalAlign=middle;whiteSpace=wrap;rounded=0;fontSize=14;" vertex="1" parent="1">
                    <mxGeometry x="350" y="420" width="50" height="30" as="geometry"/>
                </mxCell>
                <mxCell id="384" value="全体を許可する" style="text;html=1;strokeColor=none;fillColor=none;align=center;verticalAlign=middle;whiteSpace=wrap;rounded=0;fontSize=18;fontColor=default;" vertex="1" parent="1">
                    <mxGeometry x="170" y="1480" width="330" height="30" as="geometry"/>
                </mxCell>
                <mxCell id="385" value="" style="dashed=0;labelPosition=right;align=left;shape=mxgraph.gmdl.checkbox;strokeColor=#B0B0B0;fillColor=none;strokeWidth=2;aspect=fixed;sketch=0;fontSize=18;fontColor=default;" vertex="1" parent="1">
                    <mxGeometry x="510" y="1522.5" width="16" height="16" as="geometry"/>
                </mxCell>
                <mxCell id="386" value="サーバーA" style="text;html=1;strokeColor=none;fillColor=none;align=center;verticalAlign=middle;whiteSpace=wrap;rounded=0;fontSize=18;fontColor=default;" vertex="1" parent="1">
                    <mxGeometry x="170" y="1512.5" width="330" height="30" as="geometry"/>
                </mxCell>
                <mxCell id="387" value="" style="dashed=0;labelPosition=right;align=left;shape=mxgraph.gmdl.checkbox;strokeColor=#B0B0B0;fillColor=none;strokeWidth=2;aspect=fixed;sketch=0;fontSize=18;fontColor=default;" vertex="1" parent="1">
                    <mxGeometry x="510" y="1552.5" width="16" height="16" as="geometry"/>
                </mxCell>
                <mxCell id="388" value="サーバーB" style="text;html=1;strokeColor=none;fillColor=none;align=center;verticalAlign=middle;whiteSpace=wrap;rounded=0;fontSize=18;fontColor=default;" vertex="1" parent="1">
                    <mxGeometry x="170" y="1542.5" width="330" height="30" as="geometry"/>
                </mxCell>
                <mxCell id="390" value="サーバーC" style="text;html=1;strokeColor=none;fillColor=none;align=center;verticalAlign=middle;whiteSpace=wrap;rounded=0;fontSize=18;fontColor=default;" vertex="1" parent="1">
                    <mxGeometry x="170" y="1572.5" width="330" height="30" as="geometry"/>
                </mxCell>
                <mxCell id="391" value="" style="dashed=0;labelPosition=right;align=left;shape=mxgraph.gmdl.checkbox;strokeColor=#B0B0B0;fillColor=none;strokeWidth=2;aspect=fixed;sketch=0;fontSize=18;fontColor=default;" vertex="1" parent="1">
                    <mxGeometry x="510" y="1610" width="16" height="16" as="geometry"/>
                </mxCell>
                <mxCell id="392" value="サーバーD" style="text;html=1;strokeColor=none;fillColor=none;align=center;verticalAlign=middle;whiteSpace=wrap;rounded=0;fontSize=18;fontColor=default;" vertex="1" parent="1">
                    <mxGeometry x="170" y="1600" width="330" height="30" as="geometry"/>
                </mxCell>
                <mxCell id="394" value="サーバーE" style="text;html=1;strokeColor=none;fillColor=none;align=center;verticalAlign=middle;whiteSpace=wrap;rounded=0;fontSize=18;fontColor=default;" vertex="1" parent="1">
                    <mxGeometry x="170" y="1630" width="330" height="30" as="geometry"/>
                </mxCell>
                <mxCell id="396" value="" style="dashed=0;labelPosition=right;align=left;shape=mxgraph.gmdl.checkbox;strokeColor=none;fillColor=#B0B0B0;strokeWidth=2;aspect=fixed;sketch=0;fontSize=18;fontColor=default;" vertex="1" parent="1">
                    <mxGeometry x="510" y="1579.5" width="16" height="16" as="geometry"/>
                </mxCell>
                <mxCell id="397" value="" style="dashed=0;labelPosition=right;align=left;shape=mxgraph.gmdl.checkbox;strokeColor=none;fillColor=#B0B0B0;strokeWidth=2;aspect=fixed;sketch=0;fontSize=18;fontColor=default;" vertex="1" parent="1">
                    <mxGeometry x="510" y="1637" width="16" height="16" as="geometry"/>
                </mxCell>
                <mxCell id="399" value="" style="verticalLabelPosition=bottom;html=1;verticalAlign=top;align=center;strokeColor=none;fillColor=#99CCFF;shape=mxgraph.azure.user;fontSize=19;fontColor=#FFFFFF;" vertex="1" parent="1">
                    <mxGeometry x="1800" y="600" width="30" height="30" as="geometry"/>
                </mxCell>
                <mxCell id="414" style="edgeStyle=none;html=1;fontSize=14;fontColor=#FFFFFF;endArrow=none;endFill=0;" edge="1" parent="1" source="400">
                    <mxGeometry relative="1" as="geometry">
                        <mxPoint x="1200" y="930" as="targetPoint"/>
                        <Array as="points">
                            <mxPoint x="1830" y="930"/>
                        </Array>
                    </mxGeometry>
                </mxCell>
                <mxCell id="400" value="&lt;span style=&quot;font-family: &amp;quot;gg sans&amp;quot;, &amp;quot;Noto Sans&amp;quot;, &amp;quot;Helvetica Neue&amp;quot;, Helvetica, Arial, sans-serif; text-align: left; background-color: rgba(2, 2, 2, 0.06);&quot;&gt;&lt;b style=&quot;&quot;&gt;&lt;font style=&quot;font-size: 37px;&quot;&gt;⚙&lt;/font&gt;&lt;/b&gt;&lt;/span&gt;" style="text;html=1;strokeColor=none;fillColor=none;align=center;verticalAlign=middle;whiteSpace=wrap;rounded=0;fontSize=12;" vertex="1" parent="1">
                    <mxGeometry x="1809" y="630" width="40" as="geometry"/>
                </mxCell>
                <mxCell id="401" value="" style="aspect=fixed;perimeter=ellipsePerimeter;html=1;align=center;shadow=0;dashed=0;fontColor=#4277BB;labelBackgroundColor=#ffffff;fontSize=12;spacingTop=3;image;image=img/lib/ibm/applications/app_server.svg;fillColor=#FFFFFF;" vertex="1" parent="1">
                    <mxGeometry x="1750" y="605" width="30" height="30" as="geometry"/>
                </mxCell>
                <mxCell id="413" style="edgeStyle=none;html=1;entryX=0.807;entryY=0;entryDx=0;entryDy=0;entryPerimeter=0;fontSize=14;fontColor=#FFFFFF;" edge="1" parent="1" source="402" target="32">
                    <mxGeometry relative="1" as="geometry"/>
                </mxCell>
                <mxCell id="402" value="&lt;span style=&quot;font-family: &amp;quot;gg sans&amp;quot;, &amp;quot;Noto Sans&amp;quot;, &amp;quot;Helvetica Neue&amp;quot;, Helvetica, Arial, sans-serif; text-align: left; background-color: rgba(2, 2, 2, 0.06);&quot;&gt;&lt;b style=&quot;&quot;&gt;&lt;font style=&quot;font-size: 37px;&quot;&gt;⚙&lt;/font&gt;&lt;/b&gt;&lt;/span&gt;" style="text;html=1;strokeColor=none;fillColor=none;align=center;verticalAlign=middle;whiteSpace=wrap;rounded=0;fontSize=12;" vertex="1" parent="1">
                    <mxGeometry x="1770" y="625" width="10" height="10" as="geometry"/>
                </mxCell>
                <mxCell id="403" value="&lt;span style=&quot;font-size: 18px;&quot;&gt;オン&lt;/span&gt;" style="rounded=1;whiteSpace=wrap;html=1;strokeColor=default;fontSize=9;fontColor=#f5f5fa;fillColor=#18141D;" vertex="1" parent="1">
                    <mxGeometry x="451" y="1410" width="89" height="27.5" as="geometry"/>
                </mxCell>
                <mxCell id="404" value="" style="triangle;whiteSpace=wrap;html=1;strokeColor=default;fontSize=16;fontColor=#6666FF;fillColor=#18141d;rotation=90;" vertex="1" parent="1">
                    <mxGeometry x="521" y="1417.5" width="10" height="15" as="geometry"/>
                </mxCell>
                <mxCell id="410" value="" style="endArrow=classic;html=1;fontSize=18;fontColor=default;exitX=0.5;exitY=1;exitDx=0;exitDy=0;" edge="1" parent="1" source="21" target="366">
                    <mxGeometry width="50" height="50" relative="1" as="geometry">
                        <mxPoint x="600" y="1470" as="sourcePoint"/>
                        <mxPoint x="650" y="1420" as="targetPoint"/>
                    </mxGeometry>
                </mxCell>
            </root>
        </mxGraphModel>
    </diagram>
</mxfile>
